
        <svg xmlns="http://www.w3.org/2000/svg" xmlns:xlink="http://www.w3.org/1999/xlink" version="1.1" width="3162.2278387060555" 
        height="1311.201180355209" viewBox="0 0 3162.2278387060555 1311.201180355209">
			
			<g transform="scale(8.111391935302786) translate(10, 10)">
				<defs id="SvgjsDefs3157"><linearGradient id="SvgjsLinearGradient3166"><stop id="SvgjsStop3167" stop-color="#00ff8f" offset="0"></stop><stop id="SvgjsStop3168" stop-color="#00a1ff" offset="1"></stop></linearGradient><linearGradient id="SvgjsLinearGradient3169"><stop id="SvgjsStop3170" stop-color="#00ff8f" offset="0"></stop><stop id="SvgjsStop3171" stop-color="#00a1ff" offset="1"></stop></linearGradient></defs><g id="SvgjsG3158" featureKey="nameGroupContainer" transform="matrix(1,0,0,1,3,0)" fill="url(#SvgjsLinearGradient3166)">    <rect width="364" height="87"></rect></g><g id="SvgjsG3159" featureKey="sloganFeature-0" transform="matrix(1.2159245829582594,0,0,1.2159245829582594,-0.5593259343426639,114.89900198938247)" fill="url(#SvgjsLinearGradient3169)"><path d="M0.52 9.36 c0 -2.24 1.1 -3.52 3.24 -3.52 s3.24 1.28 3.24 3.52 l0 0.44 l-2.08 0 l0 -0.58 c0 -1 -0.4 -1.38 -1.1 -1.38 s-1.1 0.38 -1.1 1.38 c0 1.02 0.44 1.78 1.88 3.04 c1.84 1.62 2.42 2.78 2.42 4.38 c0 2.24 -1.12 3.52 -3.28 3.52 s-3.28 -1.28 -3.28 -3.52 l0 -0.86 l2.08 0 l0 1 c0 1 0.44 1.36 1.14 1.36 s1.14 -0.36 1.14 -1.36 c0 -1.02 -0.44 -1.78 -1.88 -3.04 c-1.84 -1.62 -2.42 -2.78 -2.42 -4.38 z M15.324 6 l2.24 14 l-2.22 0 l-0.38 -2.54 l-2.7 0 l-0.38 2.54 l-2.02 0 l2.24 -14 l3.22 0 z M13.584 8.48 l-1.04 7.08 l2.12 0 l-1.04 -7.08 l-0.04 0 z M23.788 6 l1.6 9.94 l0.04 0 l1.48 -9.94 l3.06 0 l0 14 l-2.08 0 l0 -10.04 l-0.04 0 l-1.48 10.04 l-2.08 0 l-1.6 -9.9 l-0.04 0 l0 9.9 l-1.92 0 l0 -14 l3.06 0 z M35.932 8 l0 3.9 l3.02 0 l0 2 l-3.02 0 l0 4.1 l3.8 0 l0 2 l-6 0 l0 -14 l6 0 l0 2 l-3.8 0 z M44.096000000000004 20 l-0.84 0 l0 -2.12 l2.12 0 l0 1.9 l-0.96 2.22 l-0.9 0 z M54.12400000000001 9.36 c0 -2.24 1.1 -3.52 3.24 -3.52 s3.24 1.28 3.24 3.52 l0 0.44 l-2.08 0 l0 -0.58 c0 -1 -0.4 -1.38 -1.1 -1.38 s-1.1 0.38 -1.1 1.38 c0 1.02 0.44 1.78 1.88 3.04 c1.84 1.62 2.42 2.78 2.42 4.38 c0 2.24 -1.12 3.52 -3.28 3.52 s-3.28 -1.28 -3.28 -3.52 l0 -0.86 l2.08 0 l0 1 c0 1 0.44 1.36 1.14 1.36 s1.14 -0.36 1.14 -1.36 c0 -1.02 -0.44 -1.78 -1.88 -3.04 c-1.84 -1.62 -2.42 -2.78 -2.42 -4.38 z M68.928 6 l2.24 14 l-2.22 0 l-0.38 -2.54 l-2.7 0 l-0.38 2.54 l-2.02 0 l2.24 -14 l3.22 0 z M67.188 8.48 l-1.04 7.08 l2.12 0 l-1.04 -7.08 l-0.04 0 z M77.39200000000001 6 l1.6 9.94 l0.04 0 l1.48 -9.94 l3.06 0 l0 14 l-2.08 0 l0 -10.04 l-0.04 0 l-1.48 10.04 l-2.08 0 l-1.6 -9.9 l-0.04 0 l0 9.9 l-1.92 0 l0 -14 l3.06 0 z M89.536 8 l0 3.9 l3.02 0 l0 2 l-3.02 0 l0 4.1 l3.8 0 l0 2 l-6 0 l0 -14 l6 0 l0 2 l-3.8 0 z M101.944 16.64 l0 -7.28 c0 -2.24 1.18 -3.52 3.34 -3.52 s3.34 1.28 3.34 3.52 l0 7.28 c0 0.78 -0.14 1.44 -0.42 1.96 c0.1 0.26 0.26 0.3 0.62 0.3 l0.2 0 l0 1.96 l-0.3 0 c-0.98 0 -1.6 -0.36 -1.9 -0.96 c-0.44 0.16 -0.96 0.26 -1.54 0.26 c-2.16 0 -3.34 -1.28 -3.34 -3.52 z M104.14399999999999 9.22 l0 7.56 c0 1 0.44 1.38 1.14 1.38 s1.14 -0.38 1.14 -1.38 l0 -7.56 c0 -1 -0.44 -1.38 -1.14 -1.38 s-1.14 0.38 -1.14 1.38 z M112.108 6 l2.2 0 l0 10.8 c0 1 0.44 1.36 1.14 1.36 s1.14 -0.36 1.14 -1.36 l0 -10.8 l2.08 0 l0 10.66 c0 2.24 -1.12 3.52 -3.28 3.52 s-3.28 -1.28 -3.28 -3.52 l0 -10.66 z M127.21199999999999 6 l2.24 14 l-2.22 0 l-0.38 -2.54 l-2.7 0 l-0.38 2.54 l-2.02 0 l2.24 -14 l3.22 0 z M125.472 8.48 l-1.04 7.08 l2.12 0 l-1.04 -7.08 l-0.04 0 z M132.636 20 l0 -14 l2.2 0 l0 12 l3.62 0 l0 2 l-5.82 0 z M141.57999999999998 20 l0 -14 l2.2 0 l0 14 l-2.2 0 z M146.90399999999997 8 l0 -2 l6.8 0 l0 2 l-2.3 0 l0 12 l-2.2 0 l0 -12 l-2.3 0 z M158.88799999999998 20 l0 -4.64 l-2.78 -9.36 l2.3 0 l1.66 6.38 l0.04 0 l1.66 -6.38 l2.1 0 l-2.78 9.36 l0 4.64 l-2.2 0 z M166.15199999999996 20 l-0.84 0 l0 -2.12 l2.12 0 l0 1.9 l-0.96 2.22 l-0.9 0 z M179.77999999999997 6 c2.28 0 3.26 1.06 3.26 3.22 l0 0.5 c0 1.44 -0.44 2.34 -1.42 2.8 l0 0.04 c1.18 0.46 1.64 1.5 1.64 2.98 l0 1.14 c0 2.16 -1.14 3.32 -3.34 3.32 l-3.46 0 l0 -14 l3.32 0 z M179.63999999999996 13.7 l-0.98 0 l0 4.3 l1.26 0 c0.74 0 1.14 -0.34 1.14 -1.38 l0 -1.22 c0 -1.3 -0.42 -1.7 -1.42 -1.7 z M179.71999999999997 8 l-1.06 0 l0 3.7 l0.86 0 c0.82 0 1.32 -0.36 1.32 -1.48 l0 -0.78 c0 -1 -0.34 -1.44 -1.12 -1.44 z M186.64399999999995 6 l2.2 0 l0 10.8 c0 1 0.44 1.36 1.14 1.36 s1.14 -0.36 1.14 -1.36 l0 -10.8 l2.08 0 l0 10.66 c0 2.24 -1.12 3.52 -3.28 3.52 s-3.28 -1.28 -3.28 -3.52 l0 -10.66 z M196.22799999999995 8 l0 -2 l6.8 0 l0 2 l-2.3 0 l0 12 l-2.2 0 l0 -12 l-2.3 0 z M211.41599999999997 20 l0 -14 l2.2 0 l0 12 l3.62 0 l0 2 l-5.82 0 z M222.37999999999994 9.22 l0 7.56 c0 1 0.44 1.38 1.14 1.38 s1.14 -0.38 1.14 -1.38 l0 -7.56 c0 -1 -0.44 -1.38 -1.14 -1.38 s-1.14 0.38 -1.14 1.38 z M220.17999999999995 16.64 l0 -7.28 c0 -2.24 1.18 -3.52 3.34 -3.52 s3.34 1.28 3.34 3.52 l0 7.28 c0 2.24 -1.18 3.52 -3.34 3.52 s-3.34 -1.28 -3.34 -3.52 z M236.12399999999994 20 l-0.78 -7.46 l-0.04 0 l-0.78 7.46 l-3.02 0 l-1.56 -14 l2.14 0 l1.16 11.04 l0.04 0 l1.04 -11.04 l2.12 0 l1.08 11.12 l0.04 0 l1.12 -11.12 l1.92 0 l-1.56 14 l-2.92 0 z M246.06799999999996 8 l0 3.9 l3.02 0 l0 2 l-3.02 0 l0 4.1 l3.8 0 l0 2 l-6 0 l0 -14 l6 0 l0 2 l-3.8 0 z M260.23199999999997 20 l-2.24 0 c-0.12 -0.36 -0.2 -0.58 -0.2 -1.72 l0 -2.2 c0 -1.3 -0.44 -1.78 -1.44 -1.78 l-0.76 0 l0 5.7 l-2.2 0 l0 -14 l3.32 0 c2.28 0 3.26 1.06 3.26 3.22 l0 1.1 c0 1.44 -0.46 2.36 -1.44 2.82 l0 0.04 c1.1 0.46 1.46 1.5 1.46 2.96 l0 2.16 c0 0.68 0.02 1.18 0.24 1.7 z M256.65199999999993 8 l-1.06 0 l0 4.3 l0.86 0 c0.82 0 1.32 -0.36 1.32 -1.48 l0 -1.38 c0 -1 -0.34 -1.44 -1.12 -1.44 z M273.15999999999997 14.780000000000001 l2.08 0 l0 1.86 c0 2.24 -1.12 3.52 -3.28 3.52 s-3.28 -1.28 -3.28 -3.52 l0 -7.28 c0 -2.24 1.12 -3.52 3.28 -3.52 s3.28 1.28 3.28 3.52 l0 1.36 l-2.08 0 l0 -1.5 c0 -1 -0.44 -1.38 -1.14 -1.38 s-1.14 0.38 -1.14 1.38 l0 7.56 c0 1 0.44 1.36 1.14 1.36 s1.14 -0.36 1.14 -1.36 l0 -2 z M280.76399999999995 9.22 l0 7.56 c0 1 0.44 1.38 1.14 1.38 s1.14 -0.38 1.14 -1.38 l0 -7.56 c0 -1 -0.44 -1.38 -1.14 -1.38 s-1.14 0.38 -1.14 1.38 z M278.56399999999996 16.64 l0 -7.28 c0 -2.24 1.18 -3.52 3.34 -3.52 s3.34 1.28 3.34 3.52 l0 7.28 c0 2.24 -1.18 3.52 -3.34 3.52 s-3.34 -1.28 -3.34 -3.52 z M288.54799999999994 9.36 c0 -2.24 1.1 -3.52 3.24 -3.52 s3.24 1.28 3.24 3.52 l0 0.44 l-2.08 0 l0 -0.58 c0 -1 -0.4 -1.38 -1.1 -1.38 s-1.1 0.38 -1.1 1.38 c0 1.02 0.44 1.78 1.88 3.04 c1.84 1.62 2.42 2.78 2.42 4.38 c0 2.24 -1.12 3.52 -3.28 3.52 s-3.28 -1.28 -3.28 -3.52 l0 -0.86 l2.08 0 l0 1 c0 1 0.44 1.36 1.14 1.36 s1.14 -0.36 1.14 -1.36 c0 -1.02 -0.44 -1.78 -1.88 -3.04 c-1.84 -1.62 -2.42 -2.78 -2.42 -4.38 z M297.832 8 l0 -2 l6.8 0 l0 2 l-2.3 0 l0 12 l-2.2 0 l0 -12 l-2.3 0 z"></path></g><g id="SvgjsG3160" featureKey="nameLeftFeature-0" transform="matrix(3.98521899546446,0,0,3.98521899546446,17.819214545776003,-8.512786752398913)" fill="#2b2e4a"><path d="M10.46 19.66 c0.1 0.2 0 0.34 -0.2 0.34 l-0.5 0 c-0.16 0 -0.26 -0.06 -0.32 -0.2 l-2.22 -4.88 c-0.3 0.04 -0.62 0.06 -0.94 0.06 l-3.96 0 l0 4.72 c0 0.2 -0.1 0.3 -0.3 0.3 l-0.42 0 c-0.2 0 -0.3 -0.1 -0.3 -0.3 l0 -13.4 c0 -0.2 0.1 -0.3 0.3 -0.3 l0.42 0 l4.26 0 c2.44 0 3.9 1.26 3.9 4 l0 0.98 c0 1.94 -0.72 3.14 -2.02 3.68 z M2.32 14.02 l3.96 0 c2 0 2.88 -0.88 2.88 -3.04 l0 -0.98 c0 -2.16 -0.88 -3.04 -2.88 -3.04 l-3.96 0 l0 7.06 z M20.22 6.960000000000001 l-6.6 0 l0 5.76 l5.08 0 c0.2 0 0.3 0.1 0.3 0.3 l0 0.36 c0 0.2 -0.1 0.3 -0.3 0.3 l-5.08 0 l0 5.36 l6.7 0 c0.2 0 0.3 0.1 0.3 0.3 l0 0.36 c0 0.2 -0.1 0.3 -0.3 0.3 l-7.42 0 c-0.2 0 -0.3 -0.1 -0.3 -0.3 l0 -13.4 c0 -0.2 0.1 -0.3 0.3 -0.3 l7.32 0 c0.2 0 0.3 0.1 0.3 0.3 l0 0.36 c0 0.2 -0.1 0.3 -0.3 0.3 z M33.980000000000004 6 c0.2 0 0.3 0.1 0.3 0.3 l0 13.4 c0 0.2 -0.1 0.3 -0.3 0.3 l-0.42 0 c-0.2 0 -0.3 -0.1 -0.3 -0.3 l0 -12.78 l-4.14 12.78 c-0.06 0.2 -0.2 0.3 -0.38 0.3 l-0.48 0 c-0.18 0 -0.32 -0.1 -0.38 -0.3 l-4.14 -12.78 l0 12.78 c0 0.2 -0.1 0.3 -0.3 0.3 l-0.42 0 c-0.2 0 -0.3 -0.1 -0.3 -0.3 l0 -13.4 c0 -0.2 0.1 -0.3 0.3 -0.3 l1.14 0 c0.2 0 0.34 0.1 0.4 0.3 l3.94 12.18 l3.96 -12.18 c0.06 -0.2 0.2 -0.3 0.4 -0.3 l1.12 0 z M42.04 5.9 c2.54 0 4.02 1.36 4.02 4.16 l0 5.88 c0 2.8 -1.48 4.16 -4.02 4.16 l-1.34 0 c-2.56 0 -4.02 -1.36 -4.02 -4.16 l0 -5.88 c0 -2.8 1.46 -4.16 4.02 -4.16 l1.34 0 z M45.04 15.940000000000001 l0 -5.88 c0 -2.22 -0.88 -3.2 -3 -3.2 l-1.34 0 c-2.12 0 -3 0.98 -3 3.2 l0 5.88 c0 2.22 0.88 3.2 3 3.2 l1.34 0 c2.12 0 3 -0.98 3 -3.2 z"></path></g><g id="SvgjsG3161" featureKey="nameRightFeature-0" transform="matrix(4.0421506411053665,0,0,4.0421506411053665,204.74520339558399,-9.2529038466322)" fill="#2b2e4a"><path d="M9.66 12.4 c0.8 0.6 1.34 1.5 1.34 2.74 l0 1.08 c0 2.48 -1.32 3.78 -4.18 3.78 l-4.02 0 l-1.2 0 c-0.2 0 -0.3 -0.1 -0.3 -0.3 l0 -13.4 c0 -0.2 0.1 -0.3 0.3 -0.3 l2.04 0 l3.1 0 c2.58 0 3.76 1.1 3.76 3.88 c0 1.1 -0.32 1.94 -0.84 2.52 z M7.86 9.88 c0 -1.4 -0.32 -1.52 -1.12 -1.52 l-2.8 0 l0 3.18 l2.8 0 c0.8 0 1.12 -0.2 1.12 -1.66 z M8.36 16.22 l0 -1.08 c0 -1.14 -0.46 -1.46 -1.54 -1.46 l-2.88 0 l0 3.96 l2.88 0 c1.08 0 1.54 -0.3 1.54 -1.42 z M23.240000000000002 19.6 c0.06 0.22 -0.06 0.4 -0.26 0.4 l-1.96 0 c-0.2 0 -0.34 -0.18 -0.38 -0.4 l-0.52 -1.86 l-4.68 0 l-0.52 1.86 c-0.06 0.22 -0.18 0.4 -0.38 0.4 l-1.96 0 c-0.2 0 -0.32 -0.18 -0.26 -0.4 l3.82 -13.28 c0.06 -0.2 0.2 -0.32 0.38 -0.32 l2.48 0 c0.18 0 0.32 0.12 0.38 0.32 z M16.060000000000002 15.46 l3.44 0 l-1.72 -6.22 z M34.86 6 c0.2 0 0.3 0.1 0.2 0.3 l-3.96 8.26 l0 5.14 c0 0.2 -0.1 0.3 -0.3 0.3 l-2.04 0 c-0.2 0 -0.3 -0.1 -0.3 -0.3 l0 -5.14 l-3.96 -8.26 c-0.1 -0.2 0 -0.3 0.2 -0.3 l2.24 0 c0.2 0 0.3 0.1 0.4 0.3 l2.44 5.52 l2.44 -5.52 c0.1 -0.2 0.2 -0.3 0.4 -0.3 l2.24 0 z"></path></g>
			</g>
		</svg>
	